Simulation
nRows=24
nColumns=15
endheader
time  TH_x TH_y TH_z SC_y  SC_z  SC_x  AC_y  AC_z  AC_x  GH_y  GH_z  GH_yy  EL_x  PS_y
0.75  0.000000  0.000000  0.000000  -34.738348535789655  15.890807645143765  17.96437738988473  38.75618450174388  -24.87706821140134  28.69399091442977  18.898954990574598  31.652441438296133  -17.611692510842392  20.016041293293284  0.000000
0.765  0.000000  0.000000  0.000000  -34.78138473935981  15.880741608890514  17.96171064986202  38.77709833429833  -24.85534223843547  28.71426289623608  19.1257521795784  32.095080453806  -17.937550100356866  19.810689523912732  0.000000
0.78  0.000000  0.000000  0.000000  -34.81987398215169  15.868008806181104  17.955140296995605  38.79265875088568  -24.831675850602597  28.730366213194962  19.35555148113184  32.523911678055065  -18.262510293773587  19.60396755073148  0.000000
0.7949999999999999  0.000000  0.000000  0.000000  -34.86805676196974  15.859302740255893  17.952418324905608  38.81120038292086  -24.81136264823887  28.748626253352977  19.585370925566554  32.942252394854606  -18.58420410984869  19.396345237968088  0.000000
0.8099999999999999  0.000000  0.000000  0.000000  -34.91151209046475  15.84769649707575  17.945715498718197  38.82489073151364  -24.788739199722905  28.76319627120379  19.814472433069696  33.34916288971493  -18.902419066248612  19.18830177197599  0.000000
0.825  0.000000  0.000000  0.000000  -34.96486434086685  15.839909484860339  17.942749282137438  38.84190844523026  -24.769029875976294  28.78038750381137  20.04052479305534  33.74681164807816  -19.215191656861624  18.980442330149128  0.000000
0.84  0.000000  0.000000  0.000000  -35.01432507859202  15.828996753876295  17.935920407050137  38.85472413855627  -24.74670763636005  28.79440336831509  20.263103222638104  34.133464769714635  -19.522665481460745  18.77319470787831  0.000000
0.855  0.000000  0.000000  0.000000  -35.074468672592545  15.821851052868045  17.933323374867218  38.871666511313556  -24.727257679886826  28.811742257566504  20.478827057024514  34.51088557182867  -19.822298509347895  18.56681541209962  0.000000
0.87  0.000000  0.000000  0.000000  -35.13004666025669  15.811322052052024  17.926666841704442  38.88572479616853  -24.70476189934353  28.826434567474244  20.686251988533293  34.8783713165514  -20.11375719635942  18.361664688822387  0.000000
0.885  0.000000  0.000000  0.000000  -35.19607071902432  15.804034474428464  17.92363510569454  38.904485409474596  -24.68448858815916  28.84497070452582  20.885132241650098  35.237059480422474  -20.396565658596327  18.158796537657267  0.000000
0.8999999999999999  0.000000  0.000000  0.000000  -35.257813932572844  15.79272059436141  17.915899295754325  38.92004825644294  -24.661045058459006  28.861375220645495  21.077756933540567  35.58569791401501  -20.67290588219193  17.959305741014255  0.000000
0.9149999999999999  0.000000  0.000000  0.000000  -35.327434657282254  15.784381982761566  17.91104293433599  38.93875904586461  -24.639701605159683  28.88057499521421  21.264409917198172  35.926244310332635  -20.942470160409876  17.76380964404494  0.000000
0.9299999999999999  0.000000  0.000000  0.000000  -35.388765597782765  15.772727352901482  17.900478690072266  38.952770411444654  -24.615249169985418  28.89691209107726  21.44616616875857  36.25746625309293  -21.206573487711292  17.573072125720625  0.000000
0.945  0.000000  0.000000  0.000000  -35.45847241736315  15.76417149246725  17.893753759928725  38.96953462734007  -24.5931073340033  28.915203798686246  21.626136978126336  36.578947586812745  -21.46665130501977  17.388011862786797  0.000000
0.96  0.000000  0.000000  0.000000  -35.5249227205523  15.75413755094233  17.884108895370385  38.98240558543094  -24.569940126240056  28.93055389277891  21.808082926152842  36.8870681511631  -21.725786694351207  17.210051169001154  0.000000
0.975  0.000000  0.000000  0.000000  -35.60502638356938  15.749345204843335  17.885644561790894  39.000205704521576  -24.55303164123713  28.94677946731613  21.990410751048564  37.18117384237274  -21.98139765723942  17.03854188024707  0.000000
0.99  0.000000  0.000000  0.000000  -35.68435408789526  15.741587807031133  17.89473789859146  39.01622811539313  -24.537309197346417  28.954800913678703  22.172691030925005  37.45910915979847  -22.233756422027607  16.87323277622381  0.000000
1.005  0.000000  0.000000  0.000000  -35.77843765948748  15.739978513689577  17.916253495632382  39.037672202753996  -24.52882938379693  28.963873576594402  22.35575092974252  37.72114947338556  -22.481393410854096  16.71586291914459  0.000000
1.02  0.000000  0.000000  0.000000  -35.86997371342388  15.736973272689122  17.93879421700181  39.05619505456848  -24.52104487474086  28.96845871302552  22.53967809546946  37.96731777053298  -22.72527946877977  16.567978898212342  0.000000
1.035  0.000000  0.000000  0.000000  -35.968891484623654  15.73701863144144  17.9657882030666  39.07802789331028  -24.516083097392062  28.975037123539686  22.72097291749686  38.20128324185761  -22.96205905992089  16.43008467203794  0.000000
1.05  0.000000  0.000000  0.000000  -36.05741537473979  15.733792985141857  17.9884485125805  39.09574728419701  -24.508924984276575  28.978347352564576  22.89539650236547  38.422725706741005  -23.189434999196788  16.30238079910529  0.000000
1.065  0.000000  0.000000  0.000000  -36.149822756449225  15.733731408994961  18.014869179597387  39.11698250461766  -24.504589934288553  28.984810716442247  23.059592565213823  38.63272838968481  -23.403607987376496  16.18477935519038  0.000000
1.08  0.000000  0.000000  0.000000  -36.23004291190607  15.729877970635965  18.036686986154145  39.134785577426065  -24.49779531239537  28.988511552561707  23.210940422583118  38.83085218448748  -23.603495929866643  16.077955435316465  0.000000
1.095  0.000000  0.000000  0.000000  -36.312910023581345  15.72882560791416  18.06188853377843  39.15638360669146  -24.49357027399625  28.995883023754075  23.34643542651558  39.0183582493732  -23.785007787489082  15.981972186629399  0.000000
